<?xml version="1.0" encoding="UTF-8" standalone="no"?>
<!-- Created with Inkscape (http://www.inkscape.org/) -->

<svg
   xmlns:dc="http://purl.org/dc/elements/1.1/"
   xmlns:cc="http://creativecommons.org/ns#"
   xmlns:rdf="http://www.w3.org/1999/02/22-rdf-syntax-ns#"
   xmlns:svg="http://www.w3.org/2000/svg"
   xmlns="http://www.w3.org/2000/svg"
   xmlns:sodipodi="http://sodipodi.sourceforge.net/DTD/sodipodi-0.dtd"
   xmlns:inkscape="http://www.inkscape.org/namespaces/inkscape"
   version="1.1"
   id="svg815"
   width="2873.7043"
   height="454.66669"
   viewBox="0 0 2873.7043 454.66669"
   sodipodi:docname="logo.svg"
   inkscape:version="0.92.3 (2405546, 2018-03-11)">
  <metadata
     id="metadata821">
    <rdf:RDF>
      <cc:Work
         rdf:about="">
        <dc:format>image/svg+xml</dc:format>
        <dc:type
           rdf:resource="http://purl.org/dc/dcmitype/StillImage" />
        <dc:title></dc:title>
      </cc:Work>
    </rdf:RDF>
  </metadata>
  <defs
     id="defs819" />
  <sodipodi:namedview
     pagecolor="#ffffff"
     bordercolor="#666666"
     borderopacity="1"
     objecttolerance="10"
     gridtolerance="10"
     guidetolerance="10"
     inkscape:pageopacity="0"
     inkscape:pageshadow="2"
     inkscape:window-width="1920"
     inkscape:window-height="1001"
     id="namedview817"
     showgrid="false"
     fit-margin-top="0"
     fit-margin-left="0"
     fit-margin-right="0"
     fit-margin-bottom="0"
     inkscape:zoom="1.3384521"
     inkscape:cx="539.98395"
     inkscape:cy="345.29241"
     inkscape:window-x="-9"
     inkscape:window-y="-9"
     inkscape:window-maximized="1"
     inkscape:current-layer="svg815" />
  <path
     style="fill:#4590c7;fill-opacity:1;stroke-width:1.33644652"
     d="M 528.0029,227.33328 753.99996,0.27668258 h 187.99238 187.99236 l -36.6484,36.83810042 -36.6485,36.83809 H 905.34357 753.99938 L 564.66957,264.17138 375.33976,454.38989 h -36.66695 -36.66696 z m 1916.1812,189.47865 c -15.0114,-1.19648 -29.7444,-5.03982 -38.227,-9.97218 -7.3055,-4.24792 -17.5672,-15.52973 -20.7963,-22.86358 -1.4593,-3.31468 -2.9924,-10.08848 -3.4067,-15.05289 l -0.7532,-9.02617 26.1678,2.61495 c 24.7221,2.47051 26.1678,2.76796 26.1725,5.38492 0.013,5.22201 4.84,11.0682 11.1441,13.487 8.8223,3.385 31.162,2.42919 39.5176,-1.69077 11.6692,-5.75382 14.6667,-14.76385 14.6667,-44.08685 v -17.95032 l -8.1576,8.76128 c -18.0027,19.33488 -43.9436,25.11964 -69.4077,15.47775 -21.4684,-8.12887 -39.2607,-33.28261 -43.8111,-61.93747 -2.0965,-13.20248 -1.0044,-43.05177 1.9745,-53.96388 8.6863,-31.81842 29.6139,-51.34758 59.604,-55.62082 19.8214,-2.82432 37.8372,3.37289 53.242,18.31442 l 9.2226,8.94525 V 185.3567 173.08082 h 20.7328 20.7328 l -0.4532,94.77437 c -0.4979,104.12716 -0.2451,100.76772 -8.8735,117.9402 -12.0663,24.01487 -42.8735,34.71621 -89.2911,31.01654 z m 28.3418,-109.26265 c 8.7476,-2.99457 18.4066,-12.94959 22.2168,-22.89764 3.715,-9.70006 5.0868,-33.74349 2.6384,-46.24661 -4.1975,-21.43509 -17.9574,-34.41499 -36.5568,-34.48475 -10.4364,-0.0391 -17.0594,2.12059 -23.5075,7.66574 -7.1993,6.19113 -11.6683,14.27215 -13.9953,25.30699 -3.4255,16.24378 -1.9603,38.97625 3.2794,50.87669 3.2996,7.4944 10.9856,15.77009 17.7883,19.15309 6.9235,3.44312 19.1157,3.71459 28.1367,0.62649 z m 355.823,42.24528 c -15.4325,-2.66088 -26.2514,-11.25386 -30.5422,-24.25817 -2.052,-6.2192 -2.4066,-14.05289 -2.8226,-62.36969 l -0.4756,-55.25713 h -10.5861 -10.5861 V 190.4952 173.08082 h 10.6666 10.6667 v -16.59143 -16.59143 l 21.9776,-12.87905 c 12.0877,-7.08346 22.2877,-12.87903 22.6667,-12.87903 0.379,0 0.689,13.26171 0.689,29.47047 v 29.47047 h 15.3334 15.3333 v 17.41438 17.41437 h -15.3333 -15.3334 v 49.62485 49.62488 l 3.2727,3.28802 c 3.8963,3.91445 13.0471,4.47374 21.8931,1.33811 5.0525,-1.79101 5.5045,-1.76372 5.5442,0.33489 0.024,1.25665 0.8708,8.91308 1.882,17.01428 1.3891,11.12752 1.4599,14.96906 0.29,15.70924 -5.8126,3.67743 -33.8466,6.79376 -44.536,4.95072 z M 2090.6696,227.33328 V 107.44204 h 81.3333 81.3334 v 20.09351 20.0935 h -58 -58 v 28.8007 28.80068 h 50 50 v 20.0935 20.09351 h -50 -50 v 50.90355 50.90355 h -23.3334 -23.3333 z m 201.3333,32.8194 v -87.07186 h 22.6667 22.6667 v 87.07186 87.07186 h -22.6667 -22.6667 z m 296,-32.8194 V 107.44204 h 22.6667 22.6667 v 43.64308 43.64307 l 7.6666,-6.88415 c 20.8408,-18.71364 49.2475,-23.29903 73.8263,-11.91698 14.9559,6.92586 24.5173,19.73611 27.8301,37.28672 0.7839,4.15263 1.3436,33.54729 1.3436,70.56416 v 63.4466 h -21.9046 -21.9047 l -0.4401,-61.28519 c -0.397,-55.283 -0.6724,-61.80517 -2.8128,-66.59444 -4.8668,-10.88977 -12.3431,-15.45405 -25.3138,-15.45405 -16.9545,0 -28.5541,7.50372 -34.455,22.28877 -3.0891,7.73974 -3.1399,8.65701 -3.5636,64.44819 l -0.43,56.59672 h -22.5876 -22.5878 z m -296,-98.45817 v -21.43307 h 22.6667 22.6667 v 21.43307 21.43308 h -22.6667 -22.6667 z"
     id="path4576"
     inkscape:connector-curvature="0" />
  <path
     style="fill:#ffffff;fill-opacity:1;stroke-width:1.33333337"
     d="m 0,453.65789 c 0,-0.55482 16.95388,-17.95482 37.67529,-38.66666 l 37.67529,-37.6579 H 188.67972 302.00885 L 377.33333,302 452.65781,226.66668 377.33551,151.33551 302.0132,76.004352 339.99783,38.00218 377.98245,0 h 189.33334 l 186.68417,0.27668258 -36.08042,36.78940242 -40.21286,40.2414 -154.0331,-1.30748 H 379.34219 l 75.32522,75.334075 73.33549,75.9992 -112.00365,113.33413 -113.9934,113.99926 H 151.00292 C 67.95132,454.66667 0,454.21272 0,453.65789 Z m 1407.9999,-83.76454 v -43.43998 l -7.6666,6.85166 c -30.7724,27.50106 -75.5352,21.6206 -98.4727,-12.93631 -14.8705,-22.40324 -20.4773,-61.77604 -13.1509,-92.34848 4.6223,-19.28828 17.5114,-38.32279 32.4346,-47.899 18.8294,-12.08275 45.6742,-14.00487 64.8002,-4.63979 6.543,3.2038 17.2986,12.62699 22.6589,19.85189 1.7995,2.42542 1.9823,1.55095 2.0208,-9.66666 l 0.042,-12.33334 h 21.3333 21.3334 v 119.99999 120 h -22.6667 -22.6667 z m -27.5606,-56.02215 c 19.007,-6.47635 30.8572,-33.22701 28.2429,-63.75557 -1.8309,-21.38047 -9.306,-35.4844 -22.5113,-42.4738 -8.5156,-4.50719 -23.4308,-4.19411 -31.6971,0.66536 -11.3513,6.67298 -17.7113,16.85264 -20.5819,32.94256 -3.6394,20.40021 -1.2086,44.00202 5.812,56.4286 8.7614,15.50788 24.4466,21.74297 40.7354,16.19285 z m -243.7727,35.34264 c -41.1867,-5.80549 -66.4166,-29.37381 -74.7903,-69.86457 -1.1627,-5.62242 -1.8801,-10.45651 -1.5942,-10.74243 0.2859,-0.28593 7.6894,-1.13821 16.4522,-1.89399 8.7627,-0.75576 19.0291,-1.71186 22.8141,-2.12465 l 6.8818,-0.75055 2.2358,7.6909 c 7.4702,25.69653 23.9116,37.80478 51.3339,37.80478 26.5935,0 45.3153,-13.10649 45.3284,-31.73288 0.01,-11.21408 -4.6483,-17.75704 -16.3062,-22.91389 -3.4528,-1.52736 -18.8683,-6.03877 -34.2566,-10.02536 -30.2145,-7.82755 -45.448,-13.13225 -54.8686,-19.1066 -20.4286,-12.95541 -30.5635,-31.07337 -30.5635,-54.63713 0,-30.92536 19.3024,-53.96815 52.9146,-63.16788 8.7968,-2.40771 14.0507,-2.8516 33.7519,-2.8516 26.1297,0 37.0057,2.03669 53.2132,9.96497 20.6642,10.10835 37.4535,36.55447 37.4535,58.99596 v 4.39433 l -18.2108,0.87338 c -10.016,0.48036 -20.666,0.87254 -23.6667,0.87152 l -5.4558,-0.001 -2.2627,-7.70049 c -3.3074,-11.25657 -9.0959,-18.49879 -18.1631,-22.72491 -6.8829,-3.20801 -9.0346,-3.5278 -23.5742,-3.50356 -13.359,0.0223 -17.2241,0.51442 -23.4154,2.98144 -17.2687,6.88096 -22.4961,21.40242 -11.523,32.01052 6.6081,6.38838 16.8249,10.33103 47.0875,18.17106 38.6272,10.007 49.9581,14.44065 62.7534,24.55477 14.6635,11.59083 23.1576,30.40275 23.2665,51.52859 0.076,14.65714 -1.7311,22.50537 -7.9848,34.68628 -11.0516,21.5264 -31.0833,34.15364 -61.4408,38.72992 -13.7711,2.07594 -34.6068,2.28861 -47.4101,0.48392 z m 402.6113,-0.3172 c -15.4118,-3.95017 -26.9593,-12.19016 -33.2306,-23.71273 -7.5595,-13.88922 -7.778,-16.15966 -8.36,-86.85058 l -0.5351,-65 h 23.3619 23.3618 l 0.3954,61.66667 0.3953,61.66667 3.3333,5.9484 c 6.134,10.94628 17.4548,15.30233 31.903,12.27577 8.5505,-1.79115 15.8168,-6.28663 20.8702,-12.912 7.0122,-9.19332 7.5366,-13.89301 8.2187,-73.64551 l 0.6279,-55 h 22.5234 22.5235 V 260 346.66667 h -21.3333 -21.3334 V 334.42813 322.1896 l -5.754,6.00527 c -13.3334,13.91546 -29.0901,21.06858 -48.246,21.90234 -7.2134,0.31398 -14.6812,-0.16492 -18.722,-1.20057 z m 191.3887,0.30609 c -15.8063,-3.08685 -30.2824,-14.38457 -37.1195,-28.9692 -3.1013,-6.61574 -3.5472,-9.24633 -3.5472,-20.92824 0,-12.41053 0.3119,-13.99484 4.3823,-22.26314 8.1529,-16.56072 21.3609,-24.40855 52.2844,-31.0659 22.5892,-4.86309 41.2352,-9.41349 45.6667,-11.1446 3.356,-1.31095 3.6665,-2.02822 3.6645,-8.46532 0,-14.68732 -6.9257,-20.76448 -25.0376,-21.98332 -17.1341,-1.15304 -26.6665,3.18126 -32.516,14.78471 -1.5247,3.02443 -2.8953,5.64604 -3.0461,5.82581 -0.2824,0.33672 -28.5854,-3.08385 -36.5218,-4.41384 -4.0529,-0.67918 -4.3786,-1.07166 -3.5942,-4.32996 1.9734,-8.1973 9.0353,-20.74498 15.5549,-27.63854 13.5649,-14.34288 34.1867,-20.23635 65.8296,-18.8134 28.1449,1.26565 41.7153,5.91957 53.2649,18.26698 10.146,10.84695 10.381,12.44698 11.344,77.26856 l 0.8419,56.66667 3.504,10 c 1.9272,5.5 3.9149,11.05 4.4172,12.33333 0.848,2.16652 -0.7068,2.33334 -21.748,2.33334 h -22.6612 L 1803.2834,338 c -1.2903,-4.76667 -2.7231,-8.66667 -3.1839,-8.66667 -0.4609,0 -4.1218,2.48902 -8.1354,5.53115 -17.6216,13.35641 -39.7822,18.54005 -61.2975,14.33825 z m 45.7205,-34.40078 c 7.4423,-3.60272 14.0532,-10.0916 17.1183,-16.80195 1.8848,-4.12653 2.4425,-8.68197 2.4652,-20.13225 l 0.029,-14.79892 -22.4666,5.66126 c -24.8478,6.26126 -28.9524,7.9433 -33.9882,13.92794 -6.9052,8.20632 -5.7914,19.98457 2.6918,28.4678 2.7097,2.70969 6.7649,5.4964 9.0116,6.19269 6.1034,1.89163 18.6212,0.63851 25.1386,-2.51657 z m 155.7626,33.75732 c -11.5124,-3.0961 -22.006,-9.50374 -31.1728,-19.03511 -10.1394,-10.54236 -14.334,-17.43315 -18.7846,-30.85749 -9.4766,-28.58547 -7.1045,-68.5029 5.4979,-92.51512 20.5464,-39.14875 72.0228,-48.9207 104.3977,-19.81822 3.4671,3.11667 6.6656,5.66667 7.1079,5.66667 0.4423,0 0.8041,-18.9 0.8041,-42 v -42 h 22.6667 22.6667 v 119.33333 119.33334 h -21.3334 -21.3333 V 334.56 322.45333 l -7.8307,7.83063 c -17.1033,17.10337 -41.0666,24.08955 -62.6862,18.27531 z m 45.7642,-37.10508 c 14.4116,-8.4457 21.2776,-24.84603 21.2627,-50.78752 -0.013,-22.94556 -3.6905,-35.90872 -12.9871,-45.78351 -7.1,-7.54155 -13.4962,-10.15468 -24.8562,-10.15468 -12.1399,0 -18.3886,2.85023 -26.5328,12.10249 -8.2343,9.35466 -11.379,20.77566 -11.3354,41.16903 0.071,33.40663 8.5384,50.27596 28.5262,56.83417 6.4097,2.10308 19.473,0.3998 25.9226,-3.37998 z"
     id="path4589"
     inkscape:connector-curvature="0"
     sodipodi:nodetypes="sscccccccccccccccccccssccccccccccccccccccsscccccccccccsccssssscscscccccccssccsccccsccccccccsccccccccccccccscsccscccccscscscscsssccccccccccccccccssccccccccccccccscccc" />
</svg>
